<svg width="256" height="257" xmlns="http://www.w3.org/2000/svg" aria-hidden="true" role="img" class="iconify iconify--logos" preserveAspectRatio="xMidYMid meet">
 <defs>
  <linearGradient id="svg_4" x1="1" y1="0.60626" x2="1" y2="0">
   <stop stop-color="#000cff" offset="0"/>
   <stop stop-color="#000000" stop-opacity="0.99609" offset="1"/>
  </linearGradient>
  <linearGradient spreadMethod="pad" id="svg_5" x1="43.376%" x2="50.316%" y1="2.242%" y2="89.03%">
   <stop offset="0" stop-color="#ff0000" stop-opacity="0.98828"/>
   <stop offset="0.75781" stop-color="#FFDD35"/>
  </linearGradient>
 </defs>
 <g>
  <title>Layer 1</title>
  <path fill="url(#svg_4)" d="m255.153,37.938l-120.256,215.038c-2.483,4.44 -8.862,4.466 -11.382,0.048l-122.64,-215.066c-2.746,-4.814 1.371,-10.646 6.827,-9.67l120.385,21.517a6.537,6.537 0 0 0 2.322,-0.004l117.867,-21.483c5.438,-0.991 9.574,4.796 6.877,9.62z" id="svg_1"/>
  <path fill="url(#svg_5)" d="m185.432,0.063l-88.992,17.438a3.268,3.268 0 0 0 -2.634,3.014l-5.474,92.456a3.268,3.268 0 0 0 3.997,3.378l24.777,-5.718c2.318,-0.535 4.413,1.507 3.936,3.838l-7.361,36.047c-0.495,2.426 1.782,4.5 4.151,3.78l15.304,-4.649c2.372,-0.72 4.652,1.36 4.15,3.788l-11.698,56.621c-0.732,3.542 3.979,5.473 5.943,2.437l1.313,-2.028l72.516,-144.72c1.215,-2.423 -0.88,-5.186 -3.54,-4.672l-25.505,4.922c-2.396,0.462 -4.435,-1.77 -3.759,-4.114l16.646,-57.705c0.677,-2.35 -1.37,-4.583 -3.769,-4.113l-0.001,0z" id="svg_2"/>
 </g>
</svg>